g Arch
v 0 0 0
v 0.03834677 0.7316992 0
v 0 0 4
v 0.03834677 0.7316992 4
v 0.1377988 0.7212464 0
v 0.0999999 0 0
v 0.1377988 0.7212464 4
v 0.0999999 0 4
v 0 0 4
v 0.0999999 0 4
v 0 0 0
v 0.0999999 0 0
v 0.1529665 1.455382 0
v 0.1529665 1.455382 4
v 0.2507811 1.434591 0
v 0.2507811 1.434591 4
v 0.3426042 2.163119 0
v 0.3426042 2.163119 4
v 0.4377098 2.132217 0
v 0.4377098 2.132217 4
v 0.6051822 2.847157 0
v 0.6051822 2.847157 4
v 0.6965365 2.806483 0
v 0.6965365 2.806483 4
v 0.9378223 3.5 0
v 0.9378223 3.5 4
v 1.024425 3.45 0
v 1.024425 3.45 4
v 1.336881 4.114497 0
v 1.336881 4.114497 4
v 1.417783 4.055718 0
v 1.417783 4.055718 4
v 1.797987 4.683914 0
v 1.336881 4.114497 4
v 1.797987 4.683914 4
v 1.872301 4.617002 0
v 1.872301 4.617002 4
v 2.316086 5.202014 0
v 2.316086 5.202014 4
v 2.382999 5.1277 0
v 2.382999 5.1277 4
v 2.885503 5.663119 0
v 2.885503 5.663119 4
v 2.944282 5.582217 0
v 2.944282 5.582217 4
v 3.5 6.062178 0
v 3.5 6.062178 4
v 3.55 5.975575 0
v 3.55 5.975575 4
v 4.152843 6.394818 0
v 4.152843 6.394818 4
v 4.193518 6.303464 0
v 3.55 5.975575 0
v 4.193518 6.303464 4
v 4.836881 6.657396 0
v 4.836881 6.657396 4
v 4.867783 6.56229 0
v 4.867783 6.56229 4
v 5.544619 6.847034 0
v 5.544619 6.847034 4
v 5.56541 6.749219 0
v 4.867783 6.56229 0
v 5.56541 6.749219 4
v 6.268301 6.961653 0
v 6.268301 6.961653 4
v 6.278754 6.862201 0
v 6.278754 6.862201 4
v 7 7 0
v 7 7 4
v 7 6.9 0
v 6.278754 6.862201 0
v 7 6.9 4
v 7 6.9 4
v 7 7 4
v 7 6.9 0
v 7 7 0
v 0 0 4
v 0.03834677 0.7316992 4
v 0.0999999 0 4
v 0.1377988 0.7212464 4
v 0.03834677 0.7316992 0
v 0 0 0
v 0.1377988 0.7212464 0
v 0.0999999 0 0
v 0.03834677 0.7316992 4
v 0.1529665 1.455382 4
v 0.1377988 0.7212464 4
v 0.2507811 1.434591 4
v 0.1529665 1.455382 0
v 0.03834677 0.7316992 0
v 0.2507811 1.434591 0
v 0.1377988 0.7212464 0
v 0.1529665 1.455382 4
v 0.3426042 2.163119 4
v 0.2507811 1.434591 4
v 0.4377098 2.132217 4
v 0.3426042 2.163119 0
v 0.1529665 1.455382 0
v 0.4377098 2.132217 0
v 0.2507811 1.434591 0
v 0.3426042 2.163119 4
v 0.6051822 2.847157 4
v 0.4377098 2.132217 4
v 0.6965365 2.806483 4
v 0.6051822 2.847157 0
v 0.3426042 2.163119 0
v 0.6965365 2.806483 0
v 0.4377098 2.132217 0
v 0.6051822 2.847157 4
v 0.9378223 3.5 4
v 0.6965365 2.806483 4
v 1.024425 3.45 4
v 0.9378223 3.5 0
v 0.6051822 2.847157 0
v 1.024425 3.45 0
v 0.6965365 2.806483 0
v 0.9378223 3.5 4
v 1.336881 4.114497 4
v 1.024425 3.45 4
v 1.417783 4.055718 4
v 1.336881 4.114497 0
v 0.9378223 3.5 0
v 1.417783 4.055718 0
v 1.024425 3.45 0
v 1.336881 4.114497 4
v 1.797987 4.683914 4
v 1.417783 4.055718 4
v 1.872301 4.617002 4
v 1.797987 4.683914 0
v 1.336881 4.114497 0
v 1.872301 4.617002 0
v 1.417783 4.055718 0
v 1.797987 4.683914 4
v 2.316086 5.202014 4
v 1.872301 4.617002 4
v 2.382999 5.1277 4
v 2.316086 5.202014 0
v 1.797987 4.683914 0
v 2.382999 5.1277 0
v 1.872301 4.617002 0
v 2.316086 5.202014 4
v 2.885503 5.663119 4
v 2.382999 5.1277 4
v 2.944282 5.582217 4
v 2.885503 5.663119 0
v 2.316086 5.202014 0
v 2.944282 5.582217 0
v 2.382999 5.1277 0
v 2.885503 5.663119 4
v 3.5 6.062178 4
v 2.944282 5.582217 4
v 3.55 5.975575 4
v 3.5 6.062178 0
v 2.885503 5.663119 0
v 3.55 5.975575 0
v 2.944282 5.582217 0
v 3.5 6.062178 4
v 4.152843 6.394818 4
v 3.55 5.975575 4
v 4.193518 6.303464 4
v 4.152843 6.394818 0
v 3.5 6.062178 0
v 4.193518 6.303464 0
v 3.55 5.975575 0
v 4.152843 6.394818 4
v 4.836881 6.657396 4
v 4.193518 6.303464 4
v 4.867783 6.56229 4
v 4.836881 6.657396 0
v 4.152843 6.394818 0
v 4.867783 6.56229 0
v 4.193518 6.303464 0
v 4.836881 6.657396 4
v 5.544619 6.847034 4
v 4.867783 6.56229 4
v 5.56541 6.749219 4
v 5.544619 6.847034 0
v 4.836881 6.657396 0
v 5.56541 6.749219 0
v 4.867783 6.56229 0
v 5.544619 6.847034 4
v 6.268301 6.961653 4
v 5.56541 6.749219 4
v 6.278754 6.862201 4
v 6.268301 6.961653 0
v 5.544619 6.847034 0
v 6.278754 6.862201 0
v 5.56541 6.749219 0
v 6.268301 6.961653 4
v 7 7 4
v 6.278754 6.862201 4
v 7 6.9 4
v 7 7 0
v 6.268301 6.961653 0
v 7 6.9 0
v 6.278754 6.862201 0

vn -0.9986295 0.052336 0
vn -0.9945219 0.1045283 0
vn -0.9986295 0.052336 0
vn -0.9945219 0.1045283 0
vn 0.9945219 -0.1045282 0
vn 0.9986296 -0.0523359 0
vn 0.9945219 -0.1045282 0
vn 0.9986296 -0.0523359 0
vn 0 -1 0
vn 0 -1 0
vn 0 -1 0
vn 0 -1 0
vn -0.9781477 0.2079115 0
vn -0.9781477 0.2079115 0
vn 0.9781476 -0.2079116 0
vn 0.9781476 -0.2079116 0
vn -0.9510564 0.3090174 0
vn -0.9510564 0.3090174 0
vn 0.9510564 -0.3090174 0
vn 0.9510564 -0.3090174 0
vn -0.9135453 0.4067369 0
vn -0.9135453 0.4067369 0
vn 0.9135454 -0.4067367 0
vn 0.9135454 -0.4067367 0
vn -0.8660255 0.4999999 0
vn -0.8660255 0.4999999 0
vn 0.8660255 -0.4999998 0
vn 0.8660255 -0.4999998 0
vn -0.809017 0.5877853 0
vn -0.809017 0.5877853 0
vn 0.8090171 -0.5877852 0
vn 0.8090171 -0.5877852 0
vn -0.7431449 0.6691305 0
vn -0.809017 0.5877853 0
vn -0.7431449 0.6691305 0
vn 0.7431449 -0.6691305 0
vn 0.7431449 -0.6691305 0
vn -0.6691308 0.7431446 0
vn -0.6691308 0.7431446 0
vn 0.6691305 -0.7431449 0
vn 0.6691305 -0.7431449 0
vn -0.5877853 0.809017 0
vn -0.5877853 0.809017 0
vn 0.5877851 -0.8090172 0
vn 0.5877851 -0.8090172 0
vn -0.4999999 0.8660254 0
vn -0.4999999 0.8660254 0
vn 0.5 -0.8660254 0
vn 0.5 -0.8660254 0
vn -0.4067366 0.9135454 0
vn -0.4067366 0.9135454 0
vn 0.4067367 -0.9135454 0
vn 0.5 -0.8660254 0
vn 0.4067367 -0.9135454 0
vn -0.309017 0.9510565 0
vn -0.309017 0.9510565 0
vn 0.3090172 -0.9510565 0
vn 0.3090172 -0.9510565 0
vn -0.2079115 0.9781477 0
vn -0.2079115 0.9781477 0
vn 0.2079116 -0.9781477 0
vn 0.3090172 -0.9510565 0
vn 0.2079116 -0.9781477 0
vn -0.1045283 0.9945219 0
vn -0.1045283 0.9945219 0
vn 0.1045282 -0.9945219 0
vn 0.1045282 -0.9945219 0
vn -0.05233599 0.9986296 0
vn -0.05233599 0.9986296 0
vn 0.05233588 -0.9986296 0
vn 0.1045282 -0.9945219 0
vn 0.05233588 -0.9986296 0
vn 1 0 0
vn 1 0 0
vn 1 0 0
vn 1 0 0
vn 0 0 1
vn 0 0 1
vn 0 0 1
vn 0 0 0.9999999
vn 0 0 -1
vn 0 0 -1
vn 0 0 -1
vn 0 0 -1
vn 0 0 1
vn 0 0 1
vn 0 0 1
vn 0 0 0.9999999
vn 0 0 -1
vn 0 0 -1
vn 0 0 -1
vn 0 0 -1
vn 0 0 1
vn 0 0 1
vn 0 0 1
vn 0 0 0.9999999
vn 0 0 -1
vn 0 0 -1
vn 0 0 -1
vn 0 0 -0.9999999
vn 0 0 1
vn 0 0 1
vn 0 0 1
vn 0 0 0.9999999
vn 0 0 -1
vn 0 0 -1
vn 0 0 -1
vn 0 0 -1
vn 0 0 1
vn 0 0 1
vn 0 0 1
vn 0 0 1
vn 0 0 -1
vn 0 0 -1
vn 0 0 -1
vn 0 0 -1
vn 0 0 1
vn 0 0 1
vn 0 0 1
vn 0 0 1
vn 0 0 -1
vn 0 0 -1
vn 0 0 -1
vn 0 0 -1
vn 0 0 1
vn 0 0 1
vn 0 0 1
vn 0 0 1
vn 0 0 -1
vn 0 0 -1
vn 0 0 -1
vn 0 0 -1
vn 0 0 1
vn 0 0 1
vn 0 0 1
vn 0 0 1
vn 0 0 -0.9999999
vn 0 0 -1
vn 0 0 -1
vn 0 0 -1
vn 0 0 1
vn 0 0 1
vn 0 0 1
vn 0 0 1
vn 0 0 -1
vn 0 0 -1
vn 0 0 -1
vn 0 0 -1
vn 0 0 1
vn 0 0 1
vn 0 0 1
vn 0 0 1
vn 0 0 -1
vn 0 0 -1
vn 0 0 -1
vn 0 0 -0.9999999
vn 0 0 1
vn 0 0 1
vn 0 0 1
vn 0 0 1
vn 0 0 -0.9999999
vn 0 0 -1
vn 0 0 -1
vn 0 0 -1
vn 0 0 1
vn 0 0 1
vn 0 0 1
vn 0 0 0.9999999
vn 0 0 -1
vn 0 0 -1
vn 0 0 -1
vn 0 0 -1
vn 0 0 1
vn 0 0 1
vn 0 0 1
vn 0 0 1
vn 0 0 -1
vn 0 0 -1
vn 0 0 -1
vn 0 0 -0.9999999
vn 0 0 1
vn 0 0 1
vn 0 0 1
vn 0 0 1
vn 0 0 -0.9999999
vn 0 0 -1
vn 0 0 -1
vn 0 0 -1
vn 0 0 1
vn 0 0 1
vn 0 0 1
vn 0 0 1
vn 0 0 -1
vn 0 0 -1
vn 0 0 -1
vn 0 0 -1

vt 10.99055 -2.384186E-07
vt 10.25785 -2.384186E-07
vt 10.99055 4
vt 10.25785 4
vt 4 0.7222362
vt 4 0
vt 0 0.7222362
vt 0 0
vt 0 4
vt 0.0999999 4
vt 0 0
vt 0.0999999 0
vt 9.525146 -2.384186E-07
vt 9.525146 4
vt 4 1.444472
vt 0 1.444472
vt 8.792442 -2.384186E-07
vt 8.792442 4
vt 4 2.166709
vt 0 2.166709
vt 8.059739 -2.384186E-07
vt 8.059739 4
vt 4 2.888945
vt 0 2.888945
vt 7.327036 -2.384186E-07
vt 7.327036 4
vt 4 3.611181
vt 0 3.611181
vt 6.594332 0
vt 6.594332 4
vt 4 4.333418
vt 0 4.333418
vt 5.861629 0
vt 6.594332 4
vt 5.861629 4
vt 4 5.055654
vt 0 5.055654
vt 5.128925 0
vt 5.128925 4
vt 4 5.777891
vt 0 5.777891
vt 4.396222 0
vt 4.396222 4
vt 4 6.500126
vt 0 6.500126
vt 3.663518 0
vt 3.663518 4
vt 4 7.222363
vt 4.768372E-07 7.222363
vt 2.930815 0
vt 2.930815 4
vt 4 7.944599
vt 4 7.222363
vt 7.152557E-07 7.944599
vt 2.198111 0
vt 2.198111 4
vt 4 8.666835
vt 2.384186E-07 8.666835
vt 1.465407 0
vt 1.465407 4
vt 4 9.389071
vt 4 8.666835
vt 9.536743E-07 9.389071
vt 0.7327046 0
vt 0.7327046 4
vt 4 10.11131
vt 1.430511E-06 10.11131
vt 0 0
vt 0 4
vt 4 10.83354
vt 4 10.11131
vt 7.152557E-07 10.83354
vt 0 0
vt 0 0.0999999
vt 4 0
vt 4 0.0999999
vt 0 0
vt 0.03834677 0.7316992
vt 0.0999999 0
vt 0.1377988 0.7212464
vt 0.09945202 0.7316992
vt 0.1377988 0
vt 0 0.7212464
vt 0.03779888 0
vt 0 0.01045281
vt 0.1146197 0.7341354
vt 0.09945202 0
vt 0.2124343 0.7133443
vt 0.09781456 0.7341354
vt 0.2124343 0.01045281
vt 0 0.7133443
vt 0.1129823 0
vt 0 0.02079117
vt 0.1896377 0.7285284
vt 0.09781456 0
vt 0.2847433 0.6976267
vt 0.09510565 0.7285284
vt 0.2847433 0.02079117
vt 0 0.6976267
vt 0.1869287 0
vt 0 0.03090167
vt 0.262578 0.7149391
vt 0.09510565 0
vt 0.3539324 0.6742654
vt 0.09135437 0.7149391
vt 0.3539324 0.03090167
vt 0 0.6742654
vt 0.2588267 0
vt 0 0.04067373
vt 0.3326402 0.6935172
vt 0.09135437 0
vt 0.4192424 0.6435173
vt 0.08660221 0.6935172
vt 0.4192424 0.04067373
vt 0 0.6435173
vt 0.327888 0
vt 0 0.04999995
vt 0.3990588 0.6644967
vt 0.08660221 0
vt 0.4799604 0.6057184
vt 0.08090162 0.6644967
vt 0.4799604 0.04999995
vt 0 0.6057184
vt 0.3933582 0
vt 0 0.05877829
vt 0.4611053 0.6281958
vt 0.08090162 0
vt 0.5354195 0.5612831
vt 0.07431412 0.6281958
vt 0.5354195 0.05877829
vt 0 0.5612831
vt 0.4545178 0
vt 0 0.06691265
vt 0.5180993 0.5850124
vt 0.07431412 0
vt 0.5850124 0.5106983
vt 0.06691313 0.5850124
vt 0.5850124 0.06691265
vt 0 0.5106983
vt 0.5106983 0
vt 0 0.07431412
vt 0.569417 0.535419
vt 0.06691313 0
vt 0.6281958 0.4545174
vt 0.05877876 0.535419
vt 0.6281958 0.07431412
vt 0 0.4545174
vt 0.5612826 0
vt 0 0.08090162
vt 0.6144974 0.4799609
vt 0.05877876 0
vt 0.6644974 0.3933582
vt 0.04999995 0.4799609
vt 0.6644974 0.08090162
vt 0 0.3933582
vt 0.6057186 0
vt 0 0.08660269
vt 0.6528432 0.4192429
vt 0.04999995 0
vt 0.6935174 0.3278885
vt 0.04067421 0.4192429
vt 0.6935174 0.08660269
vt 0 0.3278885
vt 0.6435175 0
vt 0 0.09135437
vt 0.6840377 0.3539319
vt 0.04067421 0
vt 0.7149391 0.2588263
vt 0.03090143 0.3539319
vt 0.7149391 0.09135437
vt 0 0.2588263
vt 0.6742649 0
vt 0 0.09510565
vt 0.7077374 0.2847433
vt 0.03090143 0
vt 0.7285285 0.1869287
vt 0.02079105 0.2847433
vt 0.7285285 0.09510565
vt 0 0.1869287
vt 0.6976271 0
vt 0 0.09781456
vt 0.7236824 0.2124343
vt 0.02079105 0
vt 0.7341352 0.1129823
vt 0.01045275 0.2124343
vt 0.7341352 0.09781456
vt 0 0.1129823
vt 0.7133441 0
vt 0 0.09945202
vt 0.7316995 0.1377988
vt 0.01045275 0
vt 0.7316995 0.03779888
vt 0 0.1377988
vt 0.7316995 0.09945202
vt 0 0.03779888
vt 0.7212467 0

g Arch
f 2/2/2 1/1/1 3/3/3
f 4/4/4 2/2/2 3/3/3
f 6/6/6 5/5/5 7/7/7
f 8/8/8 6/6/6 7/7/7
f 10/10/10 9/9/9 11/11/11
f 12/12/12 10/10/10 11/11/11
f 13/13/13 2/2/2 4/4/4
f 14/14/14 13/13/13 4/4/4
f 5/5/5 15/15/15 16/16/16
f 7/7/7 5/5/5 16/16/16
f 17/17/17 13/13/13 14/14/14
f 18/18/18 17/17/17 14/14/14
f 15/15/15 19/19/19 20/20/20
f 16/16/16 15/15/15 20/20/20
f 21/21/21 17/17/17 18/18/18
f 22/22/22 21/21/21 18/18/18
f 19/19/19 23/23/23 24/24/24
f 20/20/20 19/19/19 24/24/24
f 25/25/25 21/21/21 22/22/22
f 26/26/26 25/25/25 22/22/22
f 23/23/23 27/27/27 28/28/28
f 24/24/24 23/23/23 28/28/28
f 29/29/29 25/25/25 26/26/26
f 30/30/30 29/29/29 26/26/26
f 27/27/27 31/31/31 32/32/32
f 28/28/28 27/27/27 32/32/32
f 33/33/33 29/29/29 34/34/34
f 35/35/35 33/33/33 34/34/34
f 31/31/31 36/36/36 37/37/37
f 32/32/32 31/31/31 37/37/37
f 38/38/38 33/33/33 35/35/35
f 39/39/39 38/38/38 35/35/35
f 36/36/36 40/40/40 41/41/41
f 37/37/37 36/36/36 41/41/41
f 42/42/42 38/38/38 39/39/39
f 43/43/43 42/42/42 39/39/39
f 40/40/40 44/44/44 45/45/45
f 41/41/41 40/40/40 45/45/45
f 46/46/46 42/42/42 43/43/43
f 47/47/47 46/46/46 43/43/43
f 44/44/44 48/48/48 49/49/49
f 45/45/45 44/44/44 49/49/49
f 50/50/50 46/46/46 47/47/47
f 51/51/51 50/50/50 47/47/47
f 53/53/53 52/52/52 54/54/54
f 49/49/49 53/53/53 54/54/54
f 55/55/55 50/50/50 51/51/51
f 56/56/56 55/55/55 51/51/51
f 52/52/52 57/57/57 58/58/58
f 54/54/54 52/52/52 58/58/58
f 59/59/59 55/55/55 56/56/56
f 60/60/60 59/59/59 56/56/56
f 62/62/62 61/61/61 63/63/63
f 58/58/58 62/62/62 63/63/63
f 64/64/64 59/59/59 60/60/60
f 65/65/65 64/64/64 60/60/60
f 61/61/61 66/66/66 67/67/67
f 63/63/63 61/61/61 67/67/67
f 68/68/68 64/64/64 65/65/65
f 69/69/69 68/68/68 65/65/65
f 71/71/71 70/70/70 72/72/72
f 67/67/67 71/71/71 72/72/72
f 74/74/74 73/73/73 75/75/75
f 76/76/76 74/74/74 75/75/75
f 78/78/78 77/77/77 79/79/79
f 80/80/80 78/78/78 79/79/79
f 82/82/82 81/81/81 83/83/83
f 84/84/84 82/82/82 83/83/83
f 86/86/86 85/85/85 87/87/87
f 88/88/88 86/86/86 87/87/87
f 90/90/90 89/89/89 91/91/91
f 92/92/92 90/90/90 91/91/91
f 94/94/94 93/93/93 95/95/95
f 96/96/96 94/94/94 95/95/95
f 98/98/98 97/97/97 99/99/99
f 100/100/100 98/98/98 99/99/99
f 102/102/102 101/101/101 103/103/103
f 104/104/104 102/102/102 103/103/103
f 106/106/106 105/105/105 107/107/107
f 108/108/108 106/106/106 107/107/107
f 110/110/110 109/109/109 111/111/111
f 112/112/112 110/110/110 111/111/111
f 114/114/114 113/113/113 115/115/115
f 116/116/116 114/114/114 115/115/115
f 118/118/118 117/117/117 119/119/119
f 120/120/120 118/118/118 119/119/119
f 122/122/122 121/121/121 123/123/123
f 124/124/124 122/122/122 123/123/123
f 126/126/126 125/125/125 127/127/127
f 128/128/128 126/126/126 127/127/127
f 130/130/130 129/129/129 131/131/131
f 132/132/132 130/130/130 131/131/131
f 134/134/134 133/133/133 135/135/135
f 136/136/136 134/134/134 135/135/135
f 138/138/138 137/137/137 139/139/139
f 140/140/140 138/138/138 139/139/139
f 142/142/142 141/141/141 143/143/143
f 144/144/144 142/142/142 143/143/143
f 146/146/146 145/145/145 147/147/147
f 148/148/148 146/146/146 147/147/147
f 150/150/150 149/149/149 151/151/151
f 152/152/152 150/150/150 151/151/151
f 154/154/154 153/153/153 155/155/155
f 156/156/156 154/154/154 155/155/155
f 158/158/158 157/157/157 159/159/159
f 160/160/160 158/158/158 159/159/159
f 162/162/162 161/161/161 163/163/163
f 164/164/164 162/162/162 163/163/163
f 166/166/166 165/165/165 167/167/167
f 168/168/168 166/166/166 167/167/167
f 170/170/170 169/169/169 171/171/171
f 172/172/172 170/170/170 171/171/171
f 174/174/174 173/173/173 175/175/175
f 176/176/176 174/174/174 175/175/175
f 178/178/178 177/177/177 179/179/179
f 180/180/180 178/178/178 179/179/179
f 182/182/182 181/181/181 183/183/183
f 184/184/184 182/182/182 183/183/183
f 186/186/186 185/185/185 187/187/187
f 188/188/188 186/186/186 187/187/187
f 190/190/190 189/189/189 191/191/191
f 192/192/192 190/190/190 191/191/191
f 194/194/194 193/193/193 195/195/195
f 196/196/196 194/194/194 195/195/195
