g Pipe
v 0 0 0
v -0.08038479 0 -0.3
v 0 8 0
v -0.08038479 8 -0.3
v 0.009615242 0 -0.3
v 0.07794228 0 -0.04500002
v 0.009615242 8 -0.3
v 0.07794228 8 -0.04500002
v 0.2196153 0 0.2196153
v 0.2196153 8 0.2196153
v 0.2646153 0 0.141673
v 0.2646153 8 0.141673
v 0.5196152 0 0.3
v 0.2196153 0 0.2196153
v 0.5196152 8 0.3
v 0.2196153 8 0.2196153
v 0.2646153 0 0.141673
v 0.5196152 0 0.21
v 0.2646153 8 0.141673
v 0.5196152 8 0.21
v 0.8196152 0 0.2196152
v 0.8196152 8 0.2196152
v 0.5196152 0 0.21
v 0.7746153 0 0.1416729
v 0.5196152 8 0.21
v 0.7746153 8 0.1416729
v 1.03923 0 2.980232E-08
v 1.03923 8 2.980232E-08
v 0.9612882 0 -0.04499999
v 0.9612882 8 -0.04499999
v 1.119615 0 -0.3000001
v 1.03923 0 2.980232E-08
v 1.119615 8 -0.3000001
v 1.03923 8 2.980232E-08
v 0.9612882 0 -0.04499999
v 1.029615 0 -0.3
v 0.9612882 8 -0.04499999
v 1.029615 8 -0.3
v 1.03923 0 -0.6
v 1.03923 8 -0.6
v 0.9612882 0 -0.5549999
v 0.9612882 8 -0.5549999
v 0.8196152 0 -0.8196153
v 0.8196152 8 -0.8196153
v 0.7746152 0 -0.741673
v 0.7746152 8 -0.741673
v 0.5196152 0 -0.9
v 0.8196152 0 -0.8196153
v 0.5196152 8 -0.9
v 0.8196152 8 -0.8196153
v 0.7746152 0 -0.741673
v 0.5196152 0 -0.81
v 0.7746152 8 -0.741673
v 0.5196152 8 -0.81
v 0.2196153 0 -0.8196153
v 0.5196152 0 -0.9
v 0.2196153 8 -0.8196153
v 0.5196152 8 -0.9
v 0.2646153 0 -0.741673
v 0.2646153 8 -0.741673
v 0 0 -0.6000001
v 0 8 -0.6000001
v 0.07794231 0 -0.5550001
v 0.07794231 8 -0.5550001
v 0 0 -0.6000001
v 0 8 -0.6000001
v 0.07794231 0 -0.5550001
v 0.07794231 8 -0.5550001
v -0.08038479 0 -0.3
v 0 0 0
v 0.009615242 0 -0.3
v 0.07794228 0 -0.04500002
v 0 0 0
v 0.2196153 0 0.2196153
v 0.07794228 0 -0.04500002
v 0.2646153 0 0.141673
v 0.2196153 0 0.2196153
v 0.5196152 0 0.3
v 0.2646153 0 0.141673
v 0.5196152 0 0.21
v 0.5196152 0 0.3
v 0.8196152 0 0.2196152
v 0.5196152 0 0.21
v 0.7746153 0 0.1416729
v 0.8196152 0 0.2196152
v 1.03923 0 2.980232E-08
v 0.7746153 0 0.1416729
v 0.9612882 0 -0.04499999
v 1.03923 0 2.980232E-08
v 1.119615 0 -0.3000001
v 0.9612882 0 -0.04499999
v 1.029615 0 -0.3
v 1.119615 0 -0.3000001
v 1.03923 0 -0.6
v 1.029615 0 -0.3
v 0.9612882 0 -0.5549999
v 1.03923 0 -0.6
v 0.8196152 0 -0.8196153
v 0.9612882 0 -0.5549999
v 0.7746152 0 -0.741673
v 0.8196152 0 -0.8196153
v 0.5196152 0 -0.9
v 0.7746152 0 -0.741673
v 0.5196152 0 -0.81
v 0.5196152 0 -0.9
v 0.2196153 0 -0.8196153
v 0.5196152 0 -0.81
v 0.2646153 0 -0.741673
v 0.2196153 0 -0.8196153
v 0 0 -0.6000001
v 0.2646153 0 -0.741673
v 0.07794231 0 -0.5550001
v 0 0 -0.6000001
v -0.08038479 0 -0.3
v 0.07794231 0 -0.5550001
v 0.009615242 0 -0.3

vn -0.8660254 0 0.5
vn -1 0 4.628045E-08
vn -0.8660254 0 0.5
vn -1 0 4.628045E-08
vn 1 0 1.542682E-08
vn 0.8660254 0 -0.5
vn 1 0 1.542682E-08
vn 0.8660254 0 -0.5
vn -0.5000001 0 0.8660254
vn -0.5000001 0 0.8660254
vn 0.4999999 0 -0.8660254
vn 0.4999999 0 -0.8660254
vn 7.713409E-08 0 1
vn -0.5000001 0 0.8660254
vn 7.713409E-08 0 1
vn -0.5000001 0 0.8660254
vn 0.4999999 0 -0.8660254
vn 0 0 -1
vn 0.4999999 0 -0.8660254
vn 0 0 -1
vn 0.5 0 0.8660254
vn 0.5 0 0.8660254
vn 0 0 -1
vn -0.5 0 -0.8660254
vn 0 0 -1
vn -0.5 0 -0.8660254
vn 0.8660253 0 0.5000001
vn 0.8660253 0 0.5000001
vn -0.8660255 0 -0.4999999
vn -0.8660255 0 -0.4999999
vn 1 0 -6.170728E-08
vn 0.8660253 0 0.5000001
vn 1 0 -6.170728E-08
vn 0.8660253 0 0.5000001
vn -0.8660255 0 -0.4999999
vn -1 0 9.25609E-08
vn -0.8660255 0 -0.4999999
vn -1 0 9.25609E-08
vn 0.8660253 0 -0.5000002
vn 0.8660253 0 -0.5000002
vn -0.8660255 0 0.4999999
vn -0.8660255 0 0.4999999
vn 0.5 0 -0.8660254
vn 0.5 0 -0.8660254
vn -0.5 0 0.8660254
vn -0.5 0 0.8660254
vn 0 0 -1
vn 0.5 0 -0.8660254
vn 0 0 -1
vn 0.5 0 -0.8660254
vn -0.5 0 0.8660254
vn 0 0 1
vn -0.5 0 0.8660254
vn 0 0 1
vn -0.4999999 0 -0.8660255
vn 0 0 -1
vn -0.4999999 0 -0.8660255
vn 0 0 -1
vn 0.4999999 0 0.8660255
vn 0.4999999 0 0.8660255
vn -0.8660254 0 -0.5000001
vn -0.8660254 0 -0.5000001
vn 0.8660254 0 0.5000001
vn 0.8660254 0 0.5000001
vn -0.8660254 0 -0.5000001
vn -0.8660254 0 -0.5000001
vn 0.8660254 0 0.5000001
vn 0.8660254 0 0.5000001
vn 0 -1 0
vn 0 -1 0
vn 0 -1 0
vn 0 -1 0
vn 0 -1 0
vn 0 -0.9999999 0
vn 0 -0.9999999 0
vn 0 -0.9999999 0
vn 0 -1 0
vn 0 -1 0
vn 0 -1 0
vn 0 -1 0
vn 0 -1 0
vn 0 -1 0
vn 0 -1 0
vn 0 -1 0
vn 0 -0.9999999 0
vn 0 -1 0
vn 0 -1 0
vn 0 -1 0
vn 0 -0.9999999 0
vn 0 -1 0
vn 0 -1 0
vn 0 -1 0
vn 0 -0.9999999 0
vn 0 -1 0
vn 0 -1 0
vn 0 -0.9999999 0
vn 0 -1 0
vn 0 -1 0
vn 0 -1 0
vn 0 -1 0
vn 0 -0.9999999 0
vn 0 -1 0
vn 0 -1 0
vn 0 -1 0
vn 0 -1 0
vn 0 -1 0
vn 0 -1 0
vn 0 -1 0
vn 0 -0.9999999 0
vn 0 -1 0
vn 0 -1 0
vn 0 -1 0
vn 0 -1 0
vn 0 -1 0
vn 0 -1 0
vn 0 -0.9999999 0

vt 1.242332 0
vt 0.9317486 0
vt 1.242332 8
vt 0.9317486 8
vt 0.7919863 0
vt 0.5279909 0
vt 0.7919863 8
vt 0.5279909 8
vt 1.552914 0
vt 1.552914 8
vt 0.2639954 0
vt 0.2639954 8
vt 1.863497 0
vt 1.552914 0
vt 1.863497 8
vt 1.552914 8
vt 0.2639954 0
vt 0 0
vt 0.2639954 8
vt 0 8
vt 2.17408 0
vt 2.17408 8
vt 3.167945 0
vt 2.90395 0
vt 3.167945 8
vt 2.90395 8
vt 2.484663 0
vt 2.484663 8
vt 2.639955 0
vt 2.639955 8
vt 2.795246 0
vt 2.484663 0
vt 2.795246 8
vt 2.484663 8
vt 2.639955 0
vt 2.375959 0
vt 2.639955 8
vt 2.375959 8
vt 3.105829 0
vt 3.105829 8
vt 2.111964 0
vt 2.111964 8
vt 3.416411 0
vt 3.416411 8
vt 1.847968 0
vt 1.847968 8
vt 3.726994 0
vt 3.416411 0
vt 3.726994 8
vt 3.416411 8
vt 1.847968 0
vt 1.583973 0
vt 1.847968 8
vt 1.583973 8
vt 0.3105828 0
vt 0 0
vt 0.3105828 8
vt 0 8
vt 1.319977 0
vt 1.319977 8
vt 0.6211656 0
vt 0.6211656 8
vt 1.055982 0
vt 1.055982 8
vt 0.6211656 0
vt 0.6211656 8
vt 1.055982 0
vt 1.055982 8
vt 0 0
vt 0.08038479 0.3
vt 0.09000003 0
vt 0.1583271 0.255
vt 0 0.04500002
vt 0.2196153 0.2646153
vt 0.07794228 0
vt 0.2646153 0.186673
vt 0 0.07794231
vt 0.3 0.158327
vt 0.04500002 0
vt 0.3 0.06832701
vt 0 0.1583271
vt 0.3 0.07794228
vt 0 0.06832704
vt 0.2550001 0
vt 0.04499996 0.2646152
vt 0.2646152 0.04500002
vt 0 0.1866729
vt 0.1866729 0
vt 0.07794225 0.3000001
vt 0.1583271 0
vt 0 0.2550001
vt 0.06832695 2.980232E-08
vt 0.1583271 0.3
vt 0.07794225 0
vt 0.06832695 0.3
vt 0 0.04500008
vt 0.2646153 0.2196153
vt 0.04500002 0
vt 0.186673 0.2646154
vt 0 0.07794231
vt 0.3 0.08038473
vt 0 0
vt 0.2549999 0.158327
vt 0 0.09000003
vt 0.3 0
vt 0 0.08038473
vt 0.3 0.09000003
vt 0.04500002 0.158327
vt 0.2196153 0
vt 0 0.2196152
vt 0.2646153 0.07794231
vt 0.07794231 0.2646152
vt 0.08038479 0
vt 0 0.3000001
vt 0.1583271 0.04500008
vt 0.09000003 0.3000001

g Pipe
f 2/2/2 1/1/1 3/3/3
f 4/4/4 2/2/2 3/3/3
f 6/6/6 5/5/5 7/7/7
f 8/8/8 6/6/6 7/7/7
f 1/1/1 9/9/9 10/10/10
f 3/3/3 1/1/1 10/10/10
f 11/11/11 6/6/6 8/8/8
f 12/12/12 11/11/11 8/8/8
f 14/14/14 13/13/13 15/15/15
f 16/16/16 14/14/14 15/15/15
f 18/18/18 17/17/17 19/19/19
f 20/20/20 18/18/18 19/19/19
f 13/13/13 21/21/21 22/22/22
f 15/15/15 13/13/13 22/22/22
f 24/24/24 23/23/23 25/25/25
f 26/26/26 24/24/24 25/25/25
f 21/21/21 27/27/27 28/28/28
f 22/22/22 21/21/21 28/28/28
f 29/29/29 24/24/24 26/26/26
f 30/30/30 29/29/29 26/26/26
f 32/32/32 31/31/31 33/33/33
f 34/34/34 32/32/32 33/33/33
f 36/36/36 35/35/35 37/37/37
f 38/38/38 36/36/36 37/37/37
f 31/31/31 39/39/39 40/40/40
f 33/33/33 31/31/31 40/40/40
f 41/41/41 36/36/36 38/38/38
f 42/42/42 41/41/41 38/38/38
f 39/39/39 43/43/43 44/44/44
f 40/40/40 39/39/39 44/44/44
f 45/45/45 41/41/41 42/42/42
f 46/46/46 45/45/45 42/42/42
f 48/48/48 47/47/47 49/49/49
f 50/50/50 48/48/48 49/49/49
f 52/52/52 51/51/51 53/53/53
f 54/54/54 52/52/52 53/53/53
f 56/56/56 55/55/55 57/57/57
f 58/58/58 56/56/56 57/57/57
f 59/59/59 52/52/52 54/54/54
f 60/60/60 59/59/59 54/54/54
f 55/55/55 61/61/61 62/62/62
f 57/57/57 55/55/55 62/62/62
f 63/63/63 59/59/59 60/60/60
f 64/64/64 63/63/63 60/60/60
f 65/65/65 2/2/2 4/4/4
f 66/66/66 65/65/65 4/4/4
f 5/5/5 67/67/67 68/68/68
f 7/7/7 5/5/5 68/68/68
f 70/70/70 69/69/69 71/71/71
f 72/72/72 70/70/70 71/71/71
f 74/74/74 73/73/73 75/75/75
f 76/76/76 74/74/74 75/75/75
f 78/78/78 77/77/77 79/79/79
f 80/80/80 78/78/78 79/79/79
f 82/82/82 81/81/81 83/83/83
f 84/84/84 82/82/82 83/83/83
f 86/86/86 85/85/85 87/87/87
f 88/88/88 86/86/86 87/87/87
f 90/90/90 89/89/89 91/91/91
f 92/92/92 90/90/90 91/91/91
f 94/94/94 93/93/93 95/95/95
f 96/96/96 94/94/94 95/95/95
f 98/98/98 97/97/97 99/99/99
f 100/100/100 98/98/98 99/99/99
f 102/102/102 101/101/101 103/103/103
f 104/104/104 102/102/102 103/103/103
f 106/106/106 105/105/105 107/107/107
f 108/108/108 106/106/106 107/107/107
f 110/110/110 109/109/109 111/111/111
f 112/112/112 110/110/110 111/111/111
f 114/114/114 113/113/113 115/115/115
f 116/116/116 114/114/114 115/115/115
