g Sandbox
v 2.600074 -0.006250016 2.625074
v -2.625074 -0.006250016 2.625074
v 2.600074 0.2312498 2.625074
v -2.625074 0.2312498 2.625074
v -2.625074 -0.006250016 2.625074
v -2.625074 -0.006250016 -2.600074
v -2.625074 0.2312498 2.625074
v -2.625074 0.2312498 -2.600074
v -2.600074 -0.006250016 -2.625074
v 2.600074 -0.006250016 -2.625074
v -2.600074 0.2312498 -2.625074
v 2.600074 0.2312498 -2.625074
v 2.625074 -0.006250016 -2.600074
v 2.625074 -0.006250016 2.600074
v 2.625074 0.2312498 -2.600074
v 2.625074 0.2312498 2.600074
v -2.5 0.2499998 2.5
v 2.5 0.2499998 2.5
v -2.607408 0.255367 2.607408
v 2.607408 0.255367 2.607408
v -2.5 0.2499998 -2.5
v -2.5 0.2499998 2.5
v -2.607408 0.255367 -2.607408
v -2.607408 0.255367 2.607408
v 2.5 0.2499998 -2.5
v -2.5 0.2499998 -2.5
v 2.607408 0.255367 -2.607408
v -2.607408 0.255367 -2.607408
v 2.5 0.2499998 2.5
v 2.5 0.2499998 -2.5
v 2.607408 0.255367 2.607408
v 2.607408 0.255367 -2.607408
v 2.5 0.2499998 2.5
v -2.5 0.2499998 2.5
v 2.5 -2.086163E-07 2.5
v -2.5 -2.086163E-07 2.5
v 2.5 0.2499998 -2.5
v 2.5 0.2499998 2.5
v 2.5 -2.086163E-07 -2.5
v 2.5 -2.086163E-07 2.5
v -2.5 0.2499998 2.5
v -2.5 0.2499998 -2.5
v -2.5 -2.086163E-07 2.5
v -2.5 -2.086163E-07 -2.5
v -2.5 0.2499998 -2.5
v 2.5 0.2499998 -2.5
v -2.5 -2.086163E-07 -2.5
v 2.5 -2.086163E-07 -2.5
v -2.607408 0.255367 -2.607408
v -2.625074 0.2312498 2.625074
v -2.625074 0.2312498 -2.600074
v -2.607408 0.255367 2.607408
v 2.607408 0.255367 -2.607408
v -2.600074 0.2312498 -2.625074
v 2.600074 0.2312498 -2.625074
v -2.607408 0.255367 -2.607408
v -2.607408 0.255367 2.607408
v 2.600074 0.2312498 2.625074
v -2.625074 0.2312498 2.625074
v 2.607408 0.255367 2.607408
v 2.607408 0.255367 2.607408
v 2.625074 0.2312498 -2.600074
v 2.625074 0.2312498 2.600074
v 2.607408 0.255367 -2.607408
v 2.625074 0.2312498 2.600074
v 2.600074 -0.006250016 2.625074
v 2.600074 0.2312498 2.625074
v 2.625074 -0.006250016 2.600074
v 2.625074 -0.006250016 -2.600074
v 2.600074 0.2312498 -2.625074
v 2.600074 -0.006250016 -2.625074
v 2.625074 0.2312498 -2.600074
v -2.600074 -0.006250016 -2.625074
v -2.625074 0.2312498 -2.600074
v -2.625074 -0.006250016 -2.600074
v -2.600074 0.2312498 -2.625074
v -2.600074 0.2312498 -2.625074
v -2.607408 0.255367 -2.607408
v -2.625074 0.2312498 -2.600074
v 2.625074 0.2312498 -2.600074
v 2.607408 0.255367 -2.607408
v 2.600074 0.2312498 -2.625074
v 2.600074 0.2312498 2.625074
v 2.607408 0.255367 2.607408
v 2.625074 0.2312498 2.600074

vn 0.3826834 0 0.9238795
vn -0.7071068 0 0.7071068
vn 0.3857322 0.2455398 0.8893372
vn -0.6417739 0.4198245 0.6417739
vn -0.7071068 0 0.7071068
vn -0.9238795 0 -0.3826834
vn -0.6417739 0.4198245 0.6417739
vn -0.8893372 0.2455398 -0.3857322
vn -0.3826834 0 -0.9238795
vn 0.3826834 0 -0.9238795
vn -0.3857323 0.2455398 -0.8893373
vn 0.3857322 0.2455398 -0.8893372
vn 0.9238795 0 -0.3826834
vn 0.9238795 0 0.3826834
vn 0.8893372 0.2455398 -0.3857322
vn 0.8893373 0.2455398 0.3857323
vn 0.02496957 0.9993763 -0.02496957
vn -0.02496957 0.9993763 -0.02496957
vn -0.2255953 0.9477412 0.2255953
vn 0.3567562 0.8633944 0.3567562
vn 0.02496957 0.9993763 0.02496957
vn 0.02496957 0.9993763 -0.02496957
vn -0.3567562 0.8633944 -0.3567562
vn -0.2255953 0.9477412 0.2255953
vn -0.02496957 0.9993763 0.02496957
vn 0.02496957 0.9993763 0.02496957
vn 0.3567562 0.8633944 -0.3567562
vn -0.3567562 0.8633944 -0.3567562
vn -0.02496957 0.9993763 -0.02496957
vn -0.02496957 0.9993763 0.02496957
vn 0.3567562 0.8633944 0.3567562
vn 0.3567562 0.8633944 -0.3567562
vn 0 0 -1
vn 0 0 -1
vn 0 0 -1
vn 0 0 -1
vn -1 0 0
vn -1 0 0
vn -1 0 0
vn -1 0 0
vn 1 0 0
vn 1 0 0
vn 1 0 0
vn 1 0 0
vn 0 0 1
vn 0 0 1
vn 0 0 1
vn 0 0 1
vn -0.3567562 0.8633944 -0.3567562
vn -0.6417739 0.4198245 0.6417739
vn -0.8893372 0.2455398 -0.3857322
vn -0.2255953 0.9477412 0.2255953
vn 0.3567562 0.8633944 -0.3567562
vn -0.3857323 0.2455398 -0.8893373
vn 0.3857322 0.2455398 -0.8893372
vn -0.3567562 0.8633944 -0.3567562
vn -0.2255953 0.9477412 0.2255953
vn 0.3857322 0.2455398 0.8893372
vn -0.6417739 0.4198245 0.6417739
vn 0.3567562 0.8633944 0.3567562
vn 0.3567562 0.8633944 0.3567562
vn 0.8893372 0.2455398 -0.3857322
vn 0.8893373 0.2455398 0.3857323
vn 0.3567562 0.8633944 -0.3567562
vn 0.8893373 0.2455398 0.3857323
vn 0.3826834 0 0.9238795
vn 0.3857322 0.2455398 0.8893372
vn 0.9238795 0 0.3826834
vn 0.9238795 0 -0.3826834
vn 0.3857322 0.2455398 -0.8893372
vn 0.3826834 0 -0.9238795
vn 0.8893372 0.2455398 -0.3857322
vn -0.3826834 0 -0.9238795
vn -0.8893372 0.2455398 -0.3857322
vn -0.9238795 0 -0.3826834
vn -0.3857323 0.2455398 -0.8893373
vn -0.3857323 0.2455398 -0.8893373
vn -0.3567562 0.8633944 -0.3567562
vn -0.8893372 0.2455398 -0.3857322
vn 0.8893372 0.2455398 -0.3857322
vn 0.3567562 0.8633944 -0.3567562
vn 0.3857322 0.2455398 -0.8893372
vn 0.3857322 0.2455398 0.8893372
vn 0.3567562 0.8633944 0.3567562
vn 0.8893373 0.2455398 0.3857323

vt 5.225149 0
vt 0 0
vt 5.225149 0.2374998
vt 0 0.2374998
vt 5.250148 0
vt 0.025 0
vt 5.250148 0.2374998
vt 0.025 0.2374998
vt 5.225149 0
vt 0.025 0
vt 5.225149 0.2374998
vt 0.025 0.2374998
vt 5.225148 0
vt 0.025 0
vt 5.225148 0.2374998
vt 0.025 0.2374998
vt 5.125074 0
vt 0.1250741 0
vt 5.232482 0.1075416
vt 0.01766664 0.1075416
vt 0 0.1250741
vt 0 5.125074
vt 0.1075416 0.01766664
vt 0.1075416 5.232481
vt 0.1250741 0.1252303
vt 5.125074 0.1252303
vt 0.01766664 0.0176887
vt 5.232482 0.01768868
vt 0.1252303 5.125074
vt 0.1252303 0.1250741
vt 0.01768871 5.232481
vt 0.0176887 0.01766664
vt 0 0.25
vt 5 0.25
vt 0 0
vt 5 0
vt 0 0.25
vt 5 0.25
vt 0 0
vt 5 0
vt 0 0.25
vt 5 0.25
vt 0 0
vt 5 0
vt 0 0.25
vt 5 0.25
vt 0 0
vt 5 0
vt 0 0.02989566
vt 5.232482 0
vt 0.007333517 0
vt 5.214815 0.02989566
vt 0 0.02989566
vt 5.207482 0
vt 0.007333517 0
vt 5.214815 0.02989566
vt 0.01766658 0.02989566
vt 5.225148 0
vt 0 0
vt 5.232482 0.02989566
vt 0 0.02989566
vt 5.207481 0
vt 0.007333517 0
vt 5.214815 0.02989566
vt 0.03535547 0.2374998
vt 0 0
vt 0 0.2374998
vt 0.03535547 0
vt 0 0
vt 0.03535547 0.2374998
vt 0.03535547 0
vt 0 0.2374998
vt 0 0
vt 0.03535547 0.2374998
vt 0.03535547 0
vt 0 0.2374998
vt 0 0
vt 0.01767774 0.02519971
vt 0.03535547 0
vt 0 0
vt 0.01767774 0.02519971
vt 0.03535547 0
vt 0 0
vt 0.01767774 0.02519971
vt 0.03535547 0

g Sandbox
f 2/2/2 1/1/1 3/3/3
f 4/4/4 2/2/2 3/3/3
f 6/6/6 5/5/5 7/7/7
f 8/8/8 6/6/6 7/7/7
f 10/10/10 9/9/9 11/11/11
f 12/12/12 10/10/10 11/11/11
f 14/14/14 13/13/13 15/15/15
f 16/16/16 14/14/14 15/15/15
f 18/18/18 17/17/17 19/19/19
f 20/20/20 18/18/18 19/19/19
f 22/22/22 21/21/21 23/23/23
f 24/24/24 22/22/22 23/23/23
f 26/26/26 25/25/25 27/27/27
f 28/28/28 26/26/26 27/27/27
f 30/30/30 29/29/29 31/31/31
f 32/32/32 30/30/30 31/31/31
f 34/34/34 33/33/33 35/35/35
f 36/36/36 34/34/34 35/35/35
f 38/38/38 37/37/37 39/39/39
f 40/40/40 38/38/38 39/39/39
f 42/42/42 41/41/41 43/43/43
f 44/44/44 42/42/42 43/43/43
f 46/46/46 45/45/45 47/47/47
f 48/48/48 46/46/46 47/47/47
f 50/50/50 49/49/49 51/51/51
f 52/52/52 49/49/49 50/50/50
f 54/54/54 53/53/53 55/55/55
f 56/56/56 53/53/53 54/54/54
f 58/58/58 57/57/57 59/59/59
f 60/60/60 57/57/57 58/58/58
f 62/62/62 61/61/61 63/63/63
f 64/64/64 61/61/61 62/62/62
f 66/66/66 65/65/65 67/67/67
f 68/68/68 65/65/65 66/66/66
f 70/70/70 69/69/69 71/71/71
f 72/72/72 69/69/69 70/70/70
f 74/74/74 73/73/73 75/75/75
f 76/76/76 73/73/73 74/74/74
f 78/78/78 77/77/77 79/79/79
f 81/81/81 80/80/80 82/82/82
f 84/84/84 83/83/83 85/85/85
